<svg fill="#ffffff" width="40px" height="40px" viewBox="-12.16 -12.16 56.32 56.32" version="1.1" xmlns="http://www.w3.org/2000/svg" stroke="#ffffff" stroke-width="2.912"><g id="SVGRepo_bgCarrier" stroke-width="0" transform="translate(2.08,2.08), scale(0.87)"><rect x="-12.16" y="-12.16" width="56.32" height="56.32" rx="15.2064" fill="#3596b6" strokewidth="0"></rect></g><g id="SVGRepo_iconCarrier"> <title>plus</title> <path d="M30 15.25h-13.25v-13.25c0-0.414-0.336-0.75-0.75-0.75s-0.75 0.336-0.75 0.75v0 13.25h-13.25c-0.414 0-0.75 0.336-0.75 0.75s0.336 0.75 0.75 0.75v0h13.25v13.25c0 0.414 0.336 0.75 0.75 0.75s0.75-0.336 0.75-0.75v0-13.25h13.25c0.414 0 0.75-0.336 0.75-0.75s-0.336-0.75-0.75-0.75v0z"></path> </g></svg>
